<svg width="1300" height="697" viewBox="0 0 1300 697" fill="none" xmlns="http://www.w3.org/2000/svg">
<path d="M378.342 205.886C383.572 209.28 392.66 220.194 404.243 227.86C411.025 232.342 416.256 231.203 424.913 232.05C465.984 236.095 454.86 242.928 459.785 243.592C458.386 246.213 445.583 268.348 443.197 272.823C440.99 276.947 437.177 278.794 431.651 278.174C423.155 277.217 414.587 276.509 406.225 275.035C384.784 271.253 372.86 262.529 357.492 251.929C353.419 249.118 352.414 245.614 354.532 241.643C364.364 223.151 377.283 207.587 378.342 205.886Z" fill="#466EB6"/>
<path d="M464.232 270.226C464.05 277.505 464.731 278.968 460.881 277.867C458.575 277.202 456.332 276.33 454.144 275.414C452.609 274.771 452.545 273.914 453.798 272.886C455.624 271.401 457.494 269.946 459.319 268.505C457.985 265.645 459.51 262.32 462.797 260.754C463.46 260.436 462.979 261.116 468.699 250.402C449.776 248.503 436.428 247.232 413.355 244.919C407.189 244.306 401.695 242.348 396.928 239.104C380.438 227.88 363.957 216.656 347.485 205.425C345.252 203.896 344.97 201.664 346.741 199.95C348.103 198.635 349.901 198.568 351.835 198.768C357.102 199.307 408.742 204.524 413.981 205.026C420.873 205.676 426.939 207.79 432.269 211.418C448.459 222.457 464.695 233.451 480.903 244.461C483.137 245.976 483.737 247.358 482.956 249.042C482.093 250.89 480.213 251.769 477.389 251.274C475.337 250.912 474.438 251.414 473.73 252.958C470.552 259.919 468.327 261.463 469.099 264.005C469.689 265.97 466.82 269.369 464.232 270.226Z" fill="#86B1F2"/>
<path d="M228.591 193.273C308.688 45.65 121.045 -2.65588 121.045 -2.65588H0.449951V696.814H1300V408.524C1300 408.524 1079.85 308.429 1228.92 462.627C1232.05 465.863 1235.34 469.211 1238.8 472.674C1407.1 641.165 1187.5 390.747 1003.46 462.627C819.418 534.506 940.914 376.449 824.818 274.04C708.723 171.632 572.828 151.15 499.481 274.04C426.134 396.931 148.494 340.896 228.591 193.273Z" fill="#D0ECFA"/>
<path d="M565.628 -2.65584C565.628 -2.65584 607.111 -3.8496 661.947 -2.65584H1224.62C1200.13 20.9539 1172.47 46.3295 1143.41 61.8809C1022.81 126.418 735.392 216.208 894.566 99.7527C1007.34 17.2473 795.211 0.24529 661.947 -2.65584H565.628Z" fill="#D0ECFA"/>
<path d="M267.154 378.895L258.655 363.326L237.288 359.925C234.859 359.537 234.046 357.156 235.93 355.895L252.41 344.822L249.981 328.024C249.704 326.111 252.383 324.783 254.516 325.776L273.195 334.501L293.065 327.522C295.329 326.726 297.795 328.288 297.222 330.163L292.289 346.627L306.996 359.112C308.677 360.534 307.522 362.826 305.037 362.991L283.301 364.443L272.53 379.138C271.301 380.812 268.124 380.669 267.154 378.895" fill="#F7CC7F"/>
<path d="M589.573 337.644L546.906 306.548C544.136 304.527 545.289 300.369 549.114 298.6L583.162 282.852C585.349 281.844 587.801 281.937 589.381 283.089L632.048 314.185C634.818 316.206 633.666 320.364 629.84 322.133L595.792 337.881C593.606 338.889 591.154 338.795 589.573 337.644Z" fill="#9BC1F9"/>
<path d="M587.548 312.907L583.994 289.015C583.855 288.1 584.676 287.122 585.812 286.832C586.955 286.54 587.995 287.048 588.134 287.962L591.402 309.947L623.76 316.337C624.807 316.545 625.298 317.474 624.844 318.412C624.39 319.349 623.159 319.941 622.104 319.732L587.548 312.907" fill="white"/>
<path d="M810.977 627.621L793.179 585.953C792.288 583.857 793.386 581.481 795.626 580.644L859.653 556.825C861.901 555.989 864.443 557.011 865.342 559.108L883.132 600.775C884.031 602.872 882.933 605.248 880.693 606.084L816.666 629.903C814.419 630.74 811.869 629.718 810.977 627.621" fill="#FAE0B2"/>
<path d="M871.378 603.527L855.381 566.085C855.125 565.483 855.439 564.802 856.082 564.562C856.733 564.324 857.464 564.616 857.719 565.217L873.709 602.659C873.965 603.261 873.65 603.942 873.007 604.182C872.364 604.42 871.633 604.128 871.378 603.527Z" fill="#466EB6"/>
<path d="M863.755 598.594L850.627 567.855C850.373 567.253 850.685 566.572 851.331 566.332C851.977 566.089 852.703 566.385 852.965 566.987L866.093 597.727C866.347 598.329 866.035 599.01 865.388 599.253C864.742 599.492 864.016 599.2 863.755 598.594" fill="#466EB6"/>
<path d="M861.858 607.067L845.866 569.626C845.613 569.024 845.924 568.343 846.57 568.103C847.215 567.86 847.947 568.157 848.201 568.758L864.193 606.2C864.447 606.802 864.135 607.483 863.49 607.722C862.844 607.961 862.112 607.669 861.858 607.067Z" fill="#466EB6"/>
<path d="M853.457 600.292L841.12 571.394C840.861 570.792 841.178 570.111 841.818 569.872C842.466 569.628 843.193 569.925 843.452 570.527L855.789 599.425C856.048 600.027 855.739 600.708 855.091 600.947C854.443 601.186 853.716 600.894 853.457 600.292Z" fill="#466EB6"/>
<path d="M876.451 574.991L876.129 574.24C876.012 573.961 875.689 573.819 875.404 573.925L869.332 576.186C869.054 576.288 868.922 576.597 869.039 576.876L869.362 577.628C869.479 577.907 869.801 578.049 870.087 577.942L876.158 575.682C876.444 575.58 876.568 575.27 876.451 574.991" fill="#355389"/>
<path d="M877.826 578.218L877.504 577.466C877.386 577.187 877.064 577.046 876.785 577.152L870.707 579.412C870.428 579.514 870.296 579.824 870.413 580.102L870.736 580.854C870.853 581.134 871.176 581.275 871.455 581.168L877.533 578.908C877.812 578.807 877.944 578.497 877.826 578.218Z" fill="#355389"/>
<path d="M879.201 581.443L878.878 580.691C878.761 580.412 878.438 580.27 878.159 580.376L872.081 582.638C871.802 582.739 871.677 583.049 871.795 583.327L872.118 584.08C872.235 584.358 872.558 584.5 872.837 584.394L878.908 582.133C879.194 582.031 879.319 581.721 879.201 581.443" fill="#355389"/>
<path d="M880.584 584.667L880.261 583.915C880.143 583.636 879.82 583.495 879.541 583.601L873.463 585.861C873.184 585.963 873.051 586.273 873.169 586.551L873.492 587.304C873.61 587.583 873.933 587.724 874.212 587.618L880.29 585.357C880.569 585.256 880.702 584.946 880.584 584.667Z" fill="#355389"/>
<path d="M881.959 587.892L881.635 587.14C881.518 586.861 881.194 586.719 880.914 586.826L874.837 589.087C874.557 589.188 874.432 589.498 874.55 589.777L874.874 590.529C874.992 590.808 875.315 590.949 875.595 590.843L881.672 588.583C881.952 588.48 882.077 588.171 881.959 587.892Z" fill="#355389"/>
<path d="M883.334 591.119L883.01 590.366C882.892 590.088 882.568 589.946 882.288 590.052L876.211 592.313C875.931 592.415 875.799 592.725 875.924 593.003L876.241 593.755C876.359 594.034 876.683 594.175 876.963 594.069L883.04 591.809C883.32 591.707 883.452 591.397 883.334 591.119Z" fill="#355389"/>
<path d="M884.709 594.344L884.385 593.587C884.274 593.313 883.95 593.171 883.67 593.277L877.593 595.538C877.313 595.64 877.18 595.95 877.298 596.228L877.623 596.98C877.741 597.259 878.065 597.401 878.345 597.294L884.422 595.034C884.702 594.932 884.827 594.622 884.709 594.344" fill="#355389"/>
<path d="M886.092 597.568L885.767 596.811C885.649 596.537 885.332 596.396 885.051 596.497L878.975 598.762C878.694 598.864 878.561 599.173 878.68 599.453L879.004 600.204C879.123 600.483 879.44 600.625 879.721 600.519L885.797 598.258C886.077 598.151 886.21 597.846 886.092 597.568Z" fill="#355389"/>
<path d="M902.88 594.25L877.466 628.025C877.414 628.1 877.361 628.184 877.331 628.272L874.743 635.692C874.442 636.554 875.51 637.271 876.285 636.723L883.086 631.935C883.177 631.878 883.244 631.807 883.305 631.728L908.786 597.865C909.11 597.431 908.982 596.834 908.5 596.551L904.227 593.998C903.776 593.733 903.181 593.843 902.88 594.25" fill="#B75742"/>
<path d="M1087.16 565.86L1095.49 574.055C1115.2 593.442 1131.28 616.409 1142.91 641.803L1144.19 644.59C1144.19 644.59 1166.01 646.58 1169.06 626.234C1149.91 603.949 1134.16 580.148 1121.15 553.679L1117.21 544.167L1087.16 565.86Z" fill="#466EB6"/>
<path d="M1139.41 586.291C1139.45 588.787 1138.51 599.578 1121.11 604.078C1122.25 605.684 1123.38 607.31 1124.48 608.948C1135.5 605.586 1140.45 599.758 1142.68 595.314C1143.03 594.616 1143.46 593.671 1143.74 592.941C1142.27 590.741 1140.83 588.529 1139.41 586.291Z" fill="#B75742"/>
<path d="M1122.67 600.89L1097.05 599.944L1103.12 605.259L1099.5 612.045L1123.74 605.673L1122.67 600.89Z" fill="#B75742"/>
<path d="M1125 607.033L1115.9 623.379L1122.3 620.87L1124.77 626.061L1129.05 608.868L1125 607.033" fill="#B75742"/>
<path d="M1128.48 611.463C1123.99 611.79 1120.07 608.181 1119.74 603.403C1119.41 598.626 1122.8 594.485 1127.3 594.158C1131.79 593.83 1135.7 597.44 1136.03 602.217C1136.36 606.994 1132.99 611.135 1128.48 611.463Z" fill="#F47458"/>
<path d="M112.851 417.305L8.01935 400.799C5.91568 400.464 4.52606 398.755 4.91603 396.972L18.0488 337.341C18.4443 335.562 20.4656 334.387 22.5747 334.717L127.401 351.223C129.51 351.553 130.9 353.267 130.504 355.046L117.371 414.681C116.981 416.46 114.955 417.635 112.851 417.305Z" fill="#F7CC7F"/>
<path d="M62.9507 349.133L31.0388 344.108C28.9351 343.774 27.5455 342.065 27.9354 340.281L29.9348 331.21C30.3302 329.427 32.3515 328.252 34.4606 328.586L66.3671 333.612C68.4763 333.941 69.8604 335.655 69.4704 337.434L67.4711 346.509C67.0811 348.288 65.0544 349.463 62.9507 349.133Z" fill="#F7CC7F"/>
<path d="M117.624 415.025C117.08 416.655 115.152 417.667 113.181 417.356L7.6679 400.743C5.70704 400.432 4.33937 398.913 4.51513 397.232L10.0352 343.778C10.1341 342.859 10.6833 342.013 11.5512 341.451C12.4245 340.894 13.534 340.671 14.6106 340.838L131.828 359.296C132.899 359.467 133.838 360.006 134.409 360.791C134.986 361.576 135.145 362.523 134.849 363.411L117.624 415.025Z" fill="#FAE0B2"/>
<path d="M264.893 197.234L141.092 239.22C137.106 240.575 132.719 238.592 131.293 234.803L108.444 173.898C107.019 170.102 109.105 165.931 113.091 164.576L236.892 122.591C240.885 121.241 245.272 123.218 246.697 127.014L269.54 187.913C270.965 191.708 268.892 195.879 264.893 197.234" fill="#86B1F2"/>
<path d="M182.84 181.577C187.391 193.708 180.74 207.057 167.974 211.384C155.213 215.711 141.18 209.387 136.622 197.249C132.071 185.118 138.729 171.775 151.489 167.442C164.249 163.116 178.289 169.445 182.84 181.577Z" fill="white"/>
<path d="M163.247 178.312C164.593 181.893 162.626 185.824 158.865 187.103C155.099 188.377 150.964 186.512 149.618 182.937C148.278 179.356 150.24 175.419 154.006 174.145C157.767 172.871 161.907 174.736 163.247 178.312Z" fill="#86B1F2"/>
<path d="M175.036 197.49L153.264 204.876L152.388 202.552C150.801 198.317 153.125 193.651 157.585 192.142L163.211 190.231C167.672 188.722 172.573 190.931 174.167 195.172L175.036 197.49" fill="#86B1F2"/>
<path d="M185.889 168.843C184.573 168.843 183.39 168.051 182.943 166.869C182.364 165.325 183.215 163.62 184.838 163.07L238.958 144.717C239.296 144.602 239.652 144.539 240.008 144.539C241.33 144.539 242.513 145.337 242.953 146.519C243.533 148.063 242.688 149.767 241.058 150.318L186.945 168.671C186.601 168.785 186.251 168.843 185.889 168.843Z" fill="white"/>
<path d="M200.502 181.674C199.18 181.674 197.997 180.877 197.55 179.695C196.971 178.151 197.822 176.446 199.452 175.896L241.716 161.56C242.054 161.446 242.41 161.388 242.766 161.388C244.088 161.388 245.271 162.18 245.712 163.362C245.995 164.108 245.953 164.917 245.597 165.635C245.235 166.352 244.607 166.897 243.816 167.161L201.552 181.497C201.214 181.611 200.858 181.674 200.502 181.674Z" fill="white"/>
<path d="M581.838 122.891C552.685 126.854 544.026 158.498 568.267 172.647C572.622 175.19 575.636 179.011 576.916 183.287L581.323 198.004C582.543 202.06 587.318 204.667 592.309 203.985L603.347 202.487C608.337 201.805 611.859 198.076 611.43 193.906C609.901 178.713 608.011 173.201 613.981 166.425C631.452 146.6 611 118.92 581.838 122.891" fill="#F7CC7F"/>
<path d="M598.429 144.153C597.518 145.876 597.863 148.087 598.074 150.633C600.461 149.51 603.236 148.101 604.13 146.043C604.763 144.6 604.054 142.563 602.283 142.186C602.081 142.145 599.07 142.94 598.429 144.153V144.153ZM571.404 153.485C572.897 154.811 575.377 155.389 579.012 155.25C578.388 153.039 577.452 151.051 575.622 149.635C571.472 146.448 568.925 151.267 571.404 153.485ZM584.815 187.215C582.917 174.193 580.252 160.453 579.35 156.554C562.641 157.314 568.992 142.751 576.701 148.673C578.894 150.361 579.932 152.648 580.623 155.159C586.165 154.748 591.597 153.437 596.539 151.323C596.269 148.115 595.89 145.681 596.969 143.623C598.614 140.52 603.363 139.676 605.303 142.703C606.028 143.839 606.154 145.29 605.632 146.49C604.51 149.056 601.136 150.751 598.192 152.083C599.078 162.434 600.292 172.861 601.819 183.128L600.25 183.295C598.741 173.189 597.534 162.929 596.657 152.746C591.748 154.762 586.409 156.031 580.944 156.457C582.082 161.436 584.613 174.835 586.392 187.054L584.815 187.215Z" fill="#FAE0B2"/>
<path d="M576.788 182.925C576.822 183.044 576.881 183.163 576.915 183.289L581.328 198.003C582.547 202.059 587.316 204.664 592.304 203.985L603.348 202.486C608.337 201.806 611.86 198.073 611.437 193.906C610.751 187.148 609.997 182.308 609.904 178.421L576.788 182.925Z" fill="#96D9C9"/>
<path d="M560.225 111.899L551.509 98.7438C550.673 97.4702 551.238 95.8716 552.778 95.1738C554.318 94.4761 556.244 94.9435 557.096 96.217L565.812 109.373C566.648 110.646 566.082 112.245 564.542 112.943C562.994 113.647 561.069 113.166 560.225 111.899Z" fill="#FAE0B2"/>
<path d="M541.179 143.729L522.178 142.349C520.43 142.223 519.132 140.95 519.294 139.504C519.447 138.058 520.986 136.985 522.734 137.112L541.735 138.485C543.484 138.611 544.781 139.89 544.628 141.336C544.475 142.782 542.936 143.848 541.179 143.729" fill="#FAE0B2"/>
<path d="M522.343 191.898C521.103 190.866 521.111 189.203 522.367 188.185C527.034 184.365 532.168 180.898 537.632 177.884C539.089 177.079 541.06 177.405 542.042 178.609C543.016 179.82 542.629 181.451 541.165 182.256C536.039 185.09 531.219 188.338 526.833 191.924C525.586 192.936 523.574 192.936 522.343 191.898Z" fill="#FAE0B2"/>
<path d="M607.175 111.189C605.485 110.817 604.475 109.371 604.925 107.974C607.081 101.311 608.397 94.4374 608.847 87.5568C608.949 86.1035 610.443 84.9942 612.192 85.0714C613.95 85.1487 615.292 86.3843 615.198 87.8377C614.731 95.0833 613.339 102.315 611.072 109.329C610.613 110.74 608.864 111.562 607.175 111.189" fill="#FAE0B2"/>
<path d="M626.745 131.387C626.239 130.002 627.19 128.531 628.873 128.112L648.629 123.186C650.313 122.768 652.084 123.561 652.589 124.946C653.095 126.338 652.145 127.802 650.461 128.228L630.713 133.147C629.03 133.565 627.259 132.779 626.745 131.387" fill="#FAE0B2"/>
<path d="M659.199 174.857C658.918 174.857 658.629 174.82 658.339 174.755C651.489 173.165 644.842 170.957 638.554 168.198C637.008 167.515 636.42 165.925 637.245 164.639C638.062 163.361 639.985 162.875 641.54 163.557C647.415 166.135 653.649 168.205 660.06 169.694C661.746 170.086 662.73 171.538 662.255 172.94C661.86 174.094 660.587 174.857 659.199 174.857" fill="#FAE0B2"/>
<path d="M23.7773 694.471C23.7773 694.471 -35.4527 573.826 33.0527 498.64C89.3697 436.831 165.912 424.681 225.379 461.909C250.707 477.765 321.438 474.003 406.652 398.573C517.326 300.611 794.75 354.922 741.177 550.775C715.252 645.555 826.273 599.929 772.862 694.672L23.7773 694.471" fill="white"/>
<path d="M115.179 553.692L112.468 581.66L116.498 582.25L127.902 557.367L115.179 553.692" fill="#FFB27D"/>
<path d="M117.021 579.372C117.021 579.372 116.085 582.298 116.669 584.478C117.059 585.935 114.661 587.933 112.011 590.692C111.744 590.971 111.248 590.69 111.305 590.32C111.335 590.124 111.4 589.896 111.521 589.63C112.001 588.579 113.378 586.755 113.378 586.755C113.267 586.348 110.443 587.785 108.849 588.78C107.924 589.357 105.243 592.087 104.529 591.682C103.815 591.274 104.97 588.646 106.209 586.712C107.449 584.776 111.909 583.143 112.468 581.66C113.026 580.174 117.021 579.372 117.021 579.372Z" fill="#FFB27D"/>
<path d="M130.042 452.261L159.564 440.388L186.782 452.632L159.564 465.663L130.042 452.261" fill="#233862"/>
<path d="M134.818 465.907L135.238 465.382C129.294 461.163 130.448 454.109 130.806 452.497C130.852 452.291 130.763 452.079 130.58 451.956C130.397 451.832 130.141 451.932 130.097 452.138C129.706 454.018 128.618 461.506 134.818 465.907" fill="#EFCBAB"/>
<path d="M135.239 465.381L136.128 465.692L135.384 466.591L134.818 465.907L135.239 465.381Z" fill="#D8A987"/>
<path d="M136.128 465.692C136.128 465.692 137.229 466.449 137.616 466.215C137.616 466.215 137.256 467.205 136.718 467.31C136.718 467.31 135.718 466.993 135.384 466.591L136.128 465.692Z" fill="#EFCBAB"/>
<path d="M149.121 664.502L147.118 672.449L144.46 682.989H136.155L135.66 672.891L135.278 665.106L149.121 664.502Z" fill="#FFB27D"/>
<path d="M132.871 694.566C132.871 694.566 132.871 690.731 133.45 689.454C134.03 688.18 136.154 682.988 136.154 682.988H144.46C144.46 682.988 146.005 687.725 146.101 689.272C146.198 690.822 146.101 694.566 146.101 694.566H132.871" fill="#233862"/>
<path d="M185.604 694.566C185.604 694.566 185.604 690.731 185.025 689.454C184.445 688.18 182.321 682.988 182.321 682.988H174.015C174.015 682.988 172.47 687.725 172.374 689.272C172.277 690.822 172.374 694.566 172.374 694.566H185.604" fill="#233862"/>
<path d="M152.33 479.306C152.33 479.306 152.038 487.845 150.879 491.67L141.707 510.317L162.003 536.825L176.233 502.58L167.999 491.849C167.999 491.849 165.513 480.397 166.817 476.163C168.12 471.925 152.33 479.306 152.33 479.306Z" fill="#FFB27D"/>
<path d="M152.28 480.483C152.28 480.481 155.01 486.684 160.153 486.547C165.295 486.41 166.466 480.926 166.466 480.926L152.28 480.483Z" fill="#ED985F"/>
<path d="M149.211 475.465C149.211 475.465 147.55 467.645 146.391 465.277C145.232 462.909 144.267 452.342 157.111 451.795C157.111 451.795 162.036 452.342 164.74 450.792C164.74 450.792 164.74 452.342 164.064 452.889C164.064 452.889 167.409 450.904 170.885 454.546C174.362 458.191 169.666 471.925 169.956 474.932L149.211 475.465Z" fill="#132644"/>
<path d="M159.564 484.152C155.837 484.088 148.979 479.408 148.979 473.612V464.569C148.979 462.453 150.544 460.723 152.456 460.723H166.672C168.584 460.723 170.148 462.453 170.148 464.569V473.103C170.148 479.18 163.837 484.222 159.564 484.152" fill="#FFB27D"/>
<path d="M148.979 469.399C148.979 469.399 148.999 463.965 153.562 463.129C158.125 462.294 168.338 465.778 169.786 461.814C171.235 457.853 150.046 457.92 148.979 460.449C147.912 462.976 148.979 469.399 148.979 469.399" fill="#132644"/>
<path d="M150.88 491.67C150.879 491.67 159.373 493.469 159.373 493.469L167.958 491.517L170.149 503.945L160.514 534.881L149.974 497.811L150.88 491.67Z" fill="white"/>
<path d="M150.463 494.212L157.211 498.962L159.419 495.55L161.465 498.962L168.653 493.059L167.235 491.517L159.373 493.469L150.88 493.104L150.463 494.212" fill="#D2E3FC"/>
<path d="M185.803 561.677L165.592 562.867C165.476 562.688 165.345 562.688 165.201 562.891L159.254 563.24L133.912 561.749C133.912 561.749 127.538 589.191 130.042 625.759C130.841 637.425 132.626 671.974 134.327 684.193L151.698 684.365C153.949 670.547 156.554 636.066 157.954 630.144C158.59 627.457 159.181 624.788 159.731 622.152C160.233 625.155 160.555 627.593 160.549 629.114C160.537 631.544 161.289 635.411 162.33 640.072C163.791 646.638 168.089 676.906 169.37 684.81H187.597C187.815 673.921 188.805 636.94 189.013 625.759C189.565 595.938 185.803 561.677 185.803 561.677" fill="#EE9849"/>
<path d="M199.754 658.087C190.462 662.681 127.187 668.126 115.844 655.504C113.914 653.356 140.876 493.469 140.876 493.469C140.876 493.469 142.613 492.995 145.544 492.474C147.04 492.209 148.842 491.932 150.884 491.699C150.907 492.297 155.276 518.264 161.22 528.391C161.22 528.391 167.959 514.415 168 491.847C168 491.734 167.974 491.624 167.959 491.517C169.233 491.648 170.526 491.812 171.823 492.024C172.372 492.112 172.92 492.209 173.469 492.316C175.552 492.71 177.65 493.222 179.736 493.872C179.736 493.872 201.69 657.13 199.754 658.087" fill="#1C468A"/>
<path d="M148.214 492C148.214 492 138.532 562.151 134.818 567.41C133.263 569.61 130.989 569.969 128.31 569.476C127.8 569.384 127.272 569.261 126.735 569.111L119.309 566.426L119.277 566.415C118.074 565.962 116.859 565.533 115.648 565.179C108.02 562.95 108.612 556.895 110.666 548.637C112.72 540.379 126.169 500.617 130.707 497.811C138.729 492.855 148.214 492 148.214 492" fill="#1C468A"/>
<path d="M167.958 491.517C161.581 490.873 155.598 491.166 150.883 491.699C150.88 491.681 150.88 491.67 150.88 491.67C150.88 491.67 166.685 482.449 167.958 491.517" fill="#FFB27D"/>
<path d="M162.393 534.879C152.615 528.088 145.544 492.474 145.544 492.474C147.04 492.209 148.842 491.933 150.884 491.699C150.907 492.297 155.032 516.834 160.976 526.961C160.976 526.961 167.959 514.415 168 491.847C168 491.734 167.974 491.624 167.959 491.517C169.232 491.648 170.526 491.812 171.823 492.024C172.372 492.112 172.92 492.209 173.469 492.316C173.484 511.323 162.393 534.879 162.393 534.879Z" fill="#BC3F3F"/>
<path d="M156.264 477.447C156.264 477.447 160.722 477.026 162.791 477.501C162.791 477.501 161.673 479.199 159.865 479.182C158.056 479.169 156.695 478.533 156.264 477.447Z" fill="#FFF0E6"/>
<path d="M145.497 456.402L145.762 460.497C145.762 460.497 155.766 454.192 172.173 459.982L171.945 454.058C171.704 452.905 170.948 451.904 169.866 451.317C166.789 449.646 159.583 446.546 148.196 451.733C146.6 452.46 145.601 454.734 145.497 456.402Z" fill="#1C468A"/>
<path d="M151.625 487.904L148.214 492L157.236 497.812L159.373 493.469L151.625 487.904" fill="white"/>
<path d="M167.265 487.904L159.373 493.469L161.636 497.812L169.403 491.681L167.265 487.904" fill="white"/>
<path d="M159.118 503.068C159.361 502.84 159.755 502.84 159.998 503.068C160.241 503.299 160.241 503.669 159.998 503.899C159.755 504.127 159.361 504.127 159.118 503.899C158.875 503.669 158.875 503.299 159.118 503.068Z" fill="#D2E3FC"/>
<path d="M159.118 509.387C159.361 509.159 159.755 509.159 159.998 509.387C160.241 509.617 160.241 509.99 159.998 510.218C159.755 510.446 159.361 510.446 159.118 510.218C158.875 509.99 158.875 509.617 159.118 509.387Z" fill="#D2E3FC"/>
<path d="M159.118 515.891C159.361 515.663 159.755 515.663 159.998 515.891C160.241 516.121 160.241 516.491 159.998 516.722C159.755 516.95 159.361 516.95 159.118 516.722C158.875 516.491 158.875 516.121 159.118 515.891Z" fill="#D2E3FC"/>
<path d="M179.735 493.872C179.735 493.872 185.816 496.256 189.068 503.283C192.32 510.309 205.816 529.501 205.425 538.491C205.034 547.478 203.202 555.658 194.13 555.937C187.903 556.125 181.563 550.377 181.563 541.782C181.563 533.186 179.735 493.872 179.735 493.872Z" fill="#1C468A"/>
<path d="M199.052 550.898C198.809 553.322 197.847 555.277 195.546 555.819C188.273 557.535 185.055 550.914 186.586 544.426C186.636 544.212 186.695 544.002 186.762 543.804C188.314 539.062 193.9 538.335 195.963 538.231C196.447 538.204 196.737 538.215 196.737 538.215C196.737 538.215 196.779 538.322 196.852 538.52C197.374 539.974 199.519 546.282 199.052 550.898Z" fill="#233862"/>
<path d="M199.052 550.898C199.052 550.898 177.846 541.895 169.452 531.559C168.832 530.794 170.42 529.861 170.42 529.861L195.963 538.231L196.852 538.521C197.374 539.974 199.519 546.282 199.052 550.898Z" fill="#FFB27D"/>
<path d="M174.106 565.179H146.088V530.351H174.106V565.179Z" fill="#FCECDB"/>
<path d="M157.601 554.902L154.45 559.866L156.442 559.598L157.296 561.092L159.972 556.527L157.601 554.902" fill="#932424"/>
<path d="M161.775 554.593L164.926 559.558L162.934 559.289L162.08 560.786L159.403 556.221L161.775 554.593" fill="#932424"/>
<path d="M156.491 553.805C156.845 551.633 158.079 550.782 159.988 550.509C162.483 550.149 163.484 551.984 163.484 553.805C163.484 555.629 161.919 557.104 159.988 557.104C158.056 557.104 156.198 555.607 156.491 553.805Z" fill="#BC3F3F"/>
<path d="M160.441 551.442C160.303 551.442 160.158 551.453 160.008 551.474C158.494 551.692 157.749 552.394 157.517 553.824C157.434 554.333 157.601 554.846 157.986 555.269C158.467 555.798 159.233 556.128 159.984 556.128C161.343 556.128 162.449 555.084 162.449 553.8C162.449 552.96 162.162 552.244 161.662 551.839C161.336 551.574 160.926 551.442 160.441 551.442V551.442ZM159.984 556.433C159.14 556.433 158.28 556.063 157.739 555.468C157.291 554.977 157.098 554.376 157.195 553.778C157.45 552.212 158.302 551.407 159.959 551.171C160.736 551.059 161.38 551.206 161.874 551.606C162.446 552.07 162.774 552.869 162.774 553.8C162.774 555.253 161.523 556.433 159.984 556.433Z" fill="#932424"/>
<path d="M163.997 534.543H156.198C156.069 534.543 155.963 534.444 155.963 534.324C155.963 534.201 156.069 534.102 156.198 534.102H163.997C164.126 534.102 164.231 534.201 164.231 534.324C164.231 534.444 164.126 534.543 163.997 534.543Z" fill="#1C468A"/>
<path d="M165.509 535.471H154.685C154.556 535.471 154.45 535.372 154.45 535.249C154.45 535.128 154.556 535.029 154.685 535.029H165.509C165.638 535.029 165.744 535.128 165.744 535.249C165.744 535.372 165.638 535.471 165.509 535.471Z" fill="#1C468A"/>
<path d="M168.081 543.16H152.113C151.966 543.16 151.845 543.045 151.845 542.906C151.845 542.767 151.966 542.654 152.113 542.654H168.081C168.228 542.654 168.349 542.767 168.349 542.906C168.349 543.045 168.228 543.16 168.081 543.16Z" fill="#1C468A"/>
<path d="M168.081 544.426H152.113C151.966 544.426 151.845 544.311 151.845 544.172C151.845 544.033 151.966 543.92 152.113 543.92H168.081C168.228 543.92 168.349 544.033 168.349 544.172C168.349 544.311 168.228 544.426 168.081 544.426Z" fill="#1C468A"/>
<path d="M168.081 545.531H152.113C151.966 545.531 151.845 545.419 151.845 545.28C151.845 545.14 151.966 545.028 152.113 545.028H168.081C168.228 545.028 168.349 545.14 168.349 545.28C168.349 545.419 168.228 545.531 168.081 545.531Z" fill="#1C468A"/>
<path d="M168.081 546.744H152.113C151.966 546.744 151.845 546.631 151.845 546.492C151.845 546.353 151.966 546.241 152.113 546.241H168.081C168.228 546.241 168.349 546.353 168.349 546.492C168.349 546.631 168.228 546.744 168.081 546.744Z" fill="#1C468A"/>
<path d="M167.292 555.819C167.21 555.674 167.328 555.495 167.462 555.377C167.41 555.524 167.353 555.674 167.292 555.819ZM167.043 553.684C167.041 553.609 167.083 553.475 167.173 553.475C167.132 553.558 167.09 553.641 167.046 553.724C167.045 553.711 167.043 553.698 167.043 553.684ZM169.425 553.931C168.921 554.325 168.383 554.652 167.815 554.953C167.863 554.811 167.903 554.663 167.896 554.532C167.886 554.352 167.733 554.272 167.58 554.196C167.542 554.178 167.506 554.159 167.472 554.14C167.531 554.084 167.561 554.009 167.522 553.926C167.458 553.789 167.276 553.81 167.215 553.936C167.204 553.96 167.197 553.985 167.194 554.006C167.17 553.993 167.151 553.979 167.135 553.96C167.228 553.797 167.316 553.631 167.396 553.459C167.415 553.421 167.392 553.376 167.359 553.352C167.224 553.255 167.041 553.287 166.933 553.408C166.805 553.55 166.837 553.767 166.899 553.928C166.903 553.939 166.907 553.95 166.913 553.963C166.793 554.164 166.665 554.363 166.526 554.553C166.513 554.54 166.5 554.529 166.487 554.516C166.45 554.483 166.412 554.441 166.379 554.392C166.442 554.237 166.483 554.073 166.498 553.904C166.505 553.826 166.424 553.789 166.357 553.813C166.17 553.877 166.07 554.057 166.094 554.239C166.102 554.304 166.124 554.363 166.155 554.419C166.113 554.505 166.064 554.588 166.005 554.666C165.968 554.719 165.995 554.77 166.039 554.795C165.978 554.988 165.896 555.183 165.755 555.323C165.64 555.436 165.427 555.521 165.287 555.387C165.199 555.301 165.187 555.159 165.175 555.047C165.145 554.77 165.123 554.483 165.134 554.207C165.139 554.076 165.154 553.942 165.202 553.816C165.231 553.738 165.273 553.623 165.313 553.754C165.332 553.821 165.305 553.923 165.298 553.987C165.286 554.108 165.481 554.121 165.494 554.003C165.508 553.864 165.574 553.572 165.408 553.483C165.269 553.411 165.141 553.515 165.077 553.623C164.847 554.014 164.938 554.55 164.973 554.977C165.001 555.315 165.135 555.731 165.594 555.623C166.025 555.521 166.184 555.009 166.283 554.655C166.29 554.634 166.288 554.612 166.28 554.596C166.282 554.593 166.284 554.591 166.286 554.588C166.303 554.604 166.321 554.62 166.34 554.639C166.365 554.66 166.389 554.682 166.413 554.706C166.367 554.765 166.321 554.824 166.274 554.88C166.247 554.915 166.255 554.964 166.282 554.993C166.427 555.159 166.688 555.036 166.683 554.835C166.682 554.787 166.669 554.746 166.65 554.706C166.787 554.521 166.914 554.331 167.032 554.137C167.094 554.194 167.172 554.229 167.267 554.226C167.274 554.226 167.28 554.223 167.287 554.223C167.337 554.274 167.4 554.314 167.458 554.347C167.514 554.376 167.578 554.395 167.628 554.432C167.721 554.505 167.693 554.585 167.673 554.687C167.646 554.821 167.601 554.955 167.559 555.087C167.362 555.194 167.167 555.328 167.101 555.543C167.04 555.739 167.094 555.945 167.272 556.066C167.325 556.103 167.396 556.074 167.419 556.02C167.53 555.763 167.631 555.5 167.717 555.232C167.72 555.224 167.723 555.216 167.726 555.208C167.9 555.114 168.082 555.031 168.255 554.937C168.712 554.679 169.145 554.39 169.554 554.068C169.651 553.993 169.522 553.853 169.425 553.931" fill="#1C468A"/>
<path d="M147.676 563.908H172.712V531.835H147.676V563.908ZM173.005 564.184H147.383V531.558H173.005V564.184Z" fill="#1C468A"/>
<path d="M164.231 527.702C164.231 527.702 159.069 531.885 160.927 532.513C162.785 533.143 167.773 530.351 168.751 530.351C169.729 530.351 171.979 530.351 171.979 530.351C171.979 530.351 168.79 526.87 167.108 526.964C165.426 527.055 164.231 527.702 164.231 527.702" fill="#FFB27D"/>
<path d="M134.818 520.273L128.31 569.476C127.8 569.385 127.272 569.261 126.735 569.111L119.309 566.426L119.277 566.416C119.277 566.416 121.566 564.184 124.67 556.433C127.774 548.683 134.818 520.273 134.818 520.273Z" fill="#233862"/>
<path d="M295.601 575.805C295.601 575.805 298.339 581.383 298.191 582.907C298.046 584.43 295.601 589.271 295.601 589.271L292.644 576.454L295.601 575.805" fill="#FFB27D"/>
<path d="M293.449 551.815L295.601 575.805L292.644 576.454L284.845 554.698L293.449 551.815" fill="#FFB27D"/>
<path d="M229.872 474.76L259.243 458.406L279.42 471.743L251.47 487.113L229.872 474.76Z" fill="#233862"/>
<path d="M244.961 482.296C244.961 482.296 244.208 486.325 240.102 488.401C235.993 490.476 232.473 491.085 233.355 497.769C234.233 504.452 229.393 505.973 228.512 510.401C227.632 514.831 227.74 522.923 239.514 520.503C251.288 518.084 278.251 519.811 281.18 516.212C284.111 512.616 282.058 505.144 277.068 499.472C272.081 493.797 278.683 490.085 276.335 485.094C273.989 480.1 269.485 474.961 269.485 474.961C269.485 474.961 250.113 471.488 244.961 482.296" fill="#132644"/>
<path d="M250.523 666.313L254.495 682.096L260.446 682.064L260.665 666.313H250.523Z" fill="#FFB27D"/>
<path d="M300.58 666.986L311.882 682.096L316.289 676.761L309.485 664.91L300.58 666.986Z" fill="#FFB27D"/>
<path d="M266.153 507.26C266.195 507.276 265.428 524.829 262.238 524.861C261.567 524.867 256.636 512.57 256.008 512.409C252.596 511.529 252.115 503.655 252.161 503.647C253.605 503.376 254.023 501.504 253.992 493.456L254.646 493.577L265.627 495.628C265.627 495.628 265.377 498.89 265.371 501.96C265.362 504.538 265.527 506.984 266.153 507.26Z" fill="#FFB27D"/>
<path d="M221.793 489.647L221.435 488.939C229.425 485.354 229.855 476.876 229.843 474.916C229.84 474.666 230 474.438 230.241 474.336C230.486 474.234 230.762 474.403 230.759 474.658C230.742 476.935 230.125 485.906 221.793 489.647Z" fill="#EFCBAB"/>
<path d="M221.435 488.94L220.32 489.106L220.961 490.318L221.792 489.648L221.435 488.94" fill="#D8A987"/>
<path d="M220.32 489.106C220.32 489.106 218.847 489.736 218.454 489.382C218.454 489.382 218.625 490.613 219.226 490.854C219.226 490.854 220.47 490.712 220.961 490.318L220.32 489.106" fill="#EFCBAB"/>
<path d="M265.627 495.628C265.627 495.628 265.376 498.89 265.371 501.96C259.223 501.797 255.976 496.508 254.646 493.577L265.627 495.628Z" fill="#EF9E67"/>
<path d="M252.385 493.941C252.385 493.941 248.223 489.835 246.605 485.957C245.45 483.186 244.725 472.244 256.397 471.622C256.397 471.622 259.755 471.303 263.275 472.687C266.073 473.786 270.35 476.498 268.362 486.544L268.001 489.878L252.385 493.941" fill="#132644"/>
<path d="M315.229 673.31C315.229 673.31 312.311 673.784 309.914 673.956C309.383 673.994 308.877 674.018 308.436 674.018C307.281 674.018 305.203 673.607 303.807 673.299L303.702 673.277C303.088 673.141 302.621 673.028 302.448 672.985L302.374 672.969C302.374 672.969 287.816 657.685 279.656 633.182C279.465 632.611 279.263 632.035 279.05 631.453C274.58 619.164 265.32 603.74 260.438 589.778C259.661 587.554 258.965 585.46 258.339 583.481C258.137 582.845 257.941 582.223 257.756 581.609C254.16 569.819 253.119 562.079 252.158 553.808L281.507 560.85C281.507 560.85 293.83 611.236 315.229 673.31" fill="#A53D38"/>
<path d="M267.549 497.267C267.549 497.267 253.343 500.199 251.544 491.826C249.744 483.453 246.699 478.193 255.692 475.967C264.688 473.741 267.142 476.597 268.461 479.255C269.784 481.913 271.197 496.288 267.549 497.267" fill="#FFB27D"/>
<path d="M262.141 474.526C262.141 474.526 260.338 485.093 254.66 487.687C248.982 490.278 246.059 489.258 246.059 489.258C246.059 489.258 249.917 484.94 249.587 478.751C249.587 478.751 258.197 470.412 262.141 474.526" fill="#132644"/>
<path d="M261.345 475.508C261.345 475.508 264.728 477.15 265.894 479.145C267.06 481.143 269.485 481.851 269.641 485.067C269.641 485.067 271.154 477.828 267.043 474.68C262.684 471.341 261.345 475.508 261.345 475.508Z" fill="#132644"/>
<path d="M254.296 681.214C254.296 681.214 254.777 684.341 253.537 687.685C253.537 687.685 252.564 691.872 256.935 691.949C261.305 692.027 262.377 691.638 261.882 689.072C261.387 686.505 260.446 682.064 260.446 682.064L254.296 681.214Z" fill="#FFB27D"/>
<path d="M253.537 687.685C253.537 687.685 252.729 691.638 253.224 693.738C253.224 693.738 254.543 694.671 257.719 694.671C260.728 694.671 262.294 693.738 262.294 693.738C262.294 693.738 262.388 689.407 261.583 687.578C261.583 687.578 258.487 691.963 253.537 687.685Z" fill="#C45446"/>
<path d="M326.821 689.49C326.821 689.49 318.763 681.052 316.289 676.761L310.295 679.655L323.69 691.52L326.824 691.131L326.821 689.49" fill="#FFB27D"/>
<path d="M331.939 694.435C331.939 694.435 323.281 694.435 321.797 694.277C320.313 694.124 319.116 692.102 317.509 689.066C316.849 687.827 315.374 687.143 313.858 686.768V693.792H311.572L309.406 686.325C307.978 683.852 309.292 681.61 310.296 679.655C311.464 679.655 314.606 680.409 320.56 686.733C322.516 688.811 324.674 689.552 326.821 689.49C326.849 689.509 326.881 689.522 326.909 689.533C331.856 691.635 331.939 694.435 331.939 694.435" fill="#C45446"/>
<path d="M309.914 673.956C309.383 673.994 308.876 674.018 308.436 674.018C307.281 674.018 305.203 673.607 303.807 673.299L303.702 673.277L302.448 672.985L302.374 672.969C302.374 672.969 287.816 657.685 279.656 633.182C279.465 632.611 279.263 632.035 279.05 631.453C274.58 619.164 265.32 603.74 260.438 589.778C259.661 587.554 258.965 585.46 258.339 583.481C258.137 582.845 257.941 582.223 257.756 581.609L262.945 577.891C262.945 577.891 278.53 601.694 283.355 624.093C287.355 642.66 304.572 666.731 309.914 673.956" fill="#912F2F"/>
<path d="M263.491 626.183C263.58 637.074 262.994 662.118 261.49 672.486C261.49 672.486 260.065 673.677 256.528 673.691C252.906 673.704 251.285 672.444 251.285 672.444C247.512 654.418 244.828 639.501 242.874 626.649C241.271 616.101 239.846 607.058 238.749 599.272C237.779 592.377 243.915 573.694 243.915 573.694L266.952 571.576C266.568 590.663 263.44 619.851 263.491 626.183" fill="#A53D38"/>
<path d="M256.528 673.691C253.446 673.86 251.285 672.444 251.285 672.444C247.512 654.418 244.828 639.501 242.874 626.649C241.271 616.101 239.846 607.058 238.749 599.272C237.779 592.377 243.915 573.694 243.915 573.694L251.726 578.407C251.726 578.407 240.648 587.911 243.369 605.88C246.09 623.847 252.738 671.146 256.528 673.691" fill="#912F2F"/>
<path d="M292.812 558.649C291.373 559.104 289.75 559.373 288.146 559.593C285.595 559.944 283.102 560.169 281.507 560.85C276.801 562.865 265.385 503.414 265.385 503.414C265.385 503.414 273.693 503.489 277.509 509.159C281.322 514.831 296.164 542.838 297.486 551.815C298.078 555.851 295.86 557.678 292.812 558.649Z" fill="#1C468A"/>
<path d="M309.914 638.828C309.914 638.828 309.149 640.625 307.057 643.149C306.013 644.406 304.64 645.841 302.869 647.324C298.203 651.221 290.762 655.44 279.272 657.532C278.66 657.642 278.043 657.746 277.409 657.848C273.946 658.387 270.62 658.774 267.452 659.036C261.009 659.57 255.214 659.6 250.287 659.382C246.915 659.238 243.946 658.975 241.456 658.68C235.829 658.02 232.621 657.202 232.621 657.202C232.621 657.202 232.621 603.477 237.313 571.576C239.914 553.907 248.629 503.658 248.629 503.658L252.962 503.031L263.352 524.862L265.385 503.414L270.111 504.844C272.431 505.549 274.202 507.33 274.796 509.558L309.914 638.828" fill="#1C468A"/>
<path d="M276.426 556.304L252.32 553.998L256.227 521.056L280.332 523.359L276.426 556.304Z" fill="#BC3F3F"/>
<path d="M256.227 521.056L254.68 520.946L251.049 553.861L252.32 553.998L256.227 521.056Z" fill="#9B2323"/>
<path d="M236.008 538.033C236.008 538.033 252.934 542.911 269.107 545.094C269.107 545.094 274.447 547.269 271.939 547.867C271.296 548.02 238.905 554.682 234.103 550.359L236.008 538.033" fill="#FFB27D"/>
<path d="M252.923 503.03C252.923 503.03 240.259 504.476 238.129 506.887C231.393 514.512 225.285 547.071 230.566 554.588C236.875 563.567 246.591 549.474 249.636 541.173C251.217 536.869 253.79 510.859 252.923 503.03" fill="#1C468A"/>
<path d="M267.515 544.868C267.515 544.868 269.502 544.694 269.88 544.096C270.634 542.897 271.828 542.911 272.823 542.752C273.818 542.594 274.936 541.567 275.132 541.776C275.331 541.983 274.398 543.115 273.878 543.536C273.878 543.536 274.947 543.597 275.652 543.281C276.36 542.962 278.84 540.293 278.851 541.441C278.88 544.209 278.652 544.651 276.139 546.609C274.074 548.216 267.071 548.811 267.071 548.811L267.515 544.868" fill="#FFB27D"/>
<path d="M252.889 537.314L252.394 541.991C251.612 541.833 250.699 541.572 249.636 541.173C242.692 538.55 245.433 525.532 245.433 525.532C246.514 530.74 249.994 534.763 252.889 537.314" fill="#233862"/>
<path d="M269.485 474.961C269.485 474.961 259.218 471.281 244.962 482.296L245.252 479.78C245.513 477.53 246.741 475.476 248.669 474.127C250.842 472.609 254.305 470.933 259.508 470.241C263.082 469.766 266.642 471.204 268.74 473.974L269.485 474.961" fill="#1C468A"/>
<path d="M292.812 558.649C291.373 559.104 289.75 559.373 288.146 559.593L281.484 531.859C281.484 531.859 292.695 553.177 292.812 558.649Z" fill="#233862"/>
<path d="M262.462 492.665C262.462 492.665 263.116 493.856 264.077 493.864C265.038 493.869 267.489 493.638 267.668 493.426C267.844 493.215 268.311 491.951 268.311 491.951C268.311 491.951 264.276 491.882 262.462 492.665" fill="white"/>
<path d="M592.805 527.929C592.805 527.929 591.738 526.519 590.528 525.636C589.314 524.754 588.035 523.099 588.41 522.563C588.784 522.026 592.427 519.503 592.427 519.503L594.37 524.032L592.805 527.929" fill="#FFB27D"/>
<path d="M624.229 475.089L655.935 463.235L673.673 479.366L643.531 490.456L624.229 475.089Z" fill="#233862"/>
<path d="M606.928 538.993L594.302 523.703L592.804 527.93C592.804 527.93 605.729 555.666 611.652 553.086C614.415 551.884 606.928 538.993 606.928 538.993Z" fill="#FFB27D"/>
<path d="M646.388 489.118C646.388 489.118 640.231 492.541 644.009 499.172C644.009 499.172 638.617 498.242 637.452 496.722C637.452 496.722 637.588 497.355 637.79 497.674C637.79 497.674 631.466 496.917 630.301 494.694C627.904 490.114 633.727 490.401 636.247 485.644C639.541 479.431 644.704 474.548 652.004 477.977C652.004 477.977 662.216 477.452 657.598 489.793C652.985 502.134 657.343 503.224 657.343 503.224C657.343 503.224 655.975 503.485 655.39 503.338C655.39 503.338 654.616 502.817 654.577 502.328C654.577 502.328 654.546 503.072 654.704 503.35C654.704 503.35 649.876 502.595 647.998 500.331C646.115 498.067 644.99 491.553 646.388 489.118" fill="#C94C43"/>
<path d="M637.495 508.988C637.486 508.99 637.482 508.992 637.474 508.995C637.436 508.99 637.444 508.988 637.495 508.988Z" fill="#FFB27D"/>
<path d="M652.465 504.922C652.643 506.453 652.86 507.825 652.956 508.479C653.03 508.948 654.152 517.294 652.095 517.377C650.038 517.461 644.955 527.351 642.668 527.27C640.107 527.179 637.833 508.989 637.493 508.988C638.15 508.719 640.15 502.736 640.781 500.454C641.55 497.686 642.151 494.696 642.151 494.696L652.56 495.316L653.178 495.352C652.795 496.691 652.521 497.955 652.334 499.128C652.308 499.286 652.282 499.446 652.26 499.601C652.073 500.904 652.243 503.033 652.465 504.922" fill="#FFB27D"/>
<path d="M640.72 493.705C640.72 493.705 639.028 488.657 639.372 484.786C639.614 482.022 644.283 474.183 654.313 478.195C654.313 478.195 656.762 477.643 659.101 480.167C660.955 482.174 663.352 486.102 657.304 493.728L655.542 496.375L640.72 493.705" fill="#C94C43"/>
<path d="M652.465 504.922C645.181 502.91 642.093 494.977 642.093 494.977C645.173 495.062 649.185 497.079 652.33 499.128C652.309 499.286 652.283 499.446 652.261 499.601C652.074 500.903 652.239 503.033 652.465 504.922Z" fill="#ED975D"/>
<path d="M652.986 502.134C652.986 502.134 639.829 499.067 641.982 491.369C644.131 483.671 643.88 478.09 652.37 479.723C660.865 481.356 661.665 484.697 661.612 487.432C661.555 490.166 656.462 502.733 652.986 502.134Z" fill="#FFB27D"/>
<path d="M658.388 481.025C658.388 481.025 652.268 489.158 646.389 489.118C640.51 489.079 638.515 487.092 638.515 487.092C638.515 487.092 643.624 484.983 646.052 479.68C646.052 479.68 656.887 476.052 658.388 481.025Z" fill="#C94C43"/>
<path d="M657.291 481.536C657.291 481.536 659.405 484.221 659.506 486.344C659.612 488.466 658.774 492.574 660.057 492.748C660.057 492.748 664.482 487.286 662.418 483.057C660.23 478.572 657.291 481.536 657.291 481.536Z" fill="#C94C43"/>
<path d="M657.704 481.965C657.704 481.965 652.497 490.782 644.702 492.076C644.702 492.076 653.279 488.001 655.618 481.906C657.962 475.813 657.704 481.965 657.704 481.965" fill="#C94C43"/>
<path d="M650.93 497.199C650.93 497.199 651.096 498.371 651.885 498.649C652.679 498.926 654.784 499.428 654.994 499.304C655.207 499.179 655.996 498.265 655.996 498.265C655.996 498.265 652.683 497.066 650.93 497.199" fill="white"/>
<path d="M646.019 614.956C645.85 615.613 645.685 616.264 645.521 616.911C644.528 620.797 643.604 624.401 643.023 627.421C642.265 631.345 642.087 634.266 643.08 635.491C645.642 638.659 644.992 655.603 644.146 667.803C643.648 675.064 643.08 680.642 643.08 680.642L638.432 685.158C638.432 685.158 636.958 677.952 635.102 669.209C632.605 657.456 629.414 642.928 628.156 639.369C627.159 636.548 625.707 624.506 624.423 612.212C624.358 611.598 624.293 610.984 624.233 610.367C624.011 608.216 623.795 606.073 623.591 603.981C622.442 592.352 624.107 581.399 624.107 581.399C624.107 581.399 630.155 576.703 637.942 576.07C642.529 575.694 646.847 577.07 648.98 582.391C652.085 590.129 648.937 603.488 646.019 614.956Z" fill="#FFB27D"/>
<path d="M646.019 614.953C639.65 610.614 630.684 602.892 627.432 590.233C626.812 583.939 632.072 577.961 637.942 576.07C642.529 575.692 646.847 577.07 648.981 582.389C652.085 590.126 648.942 603.49 646.019 614.953Z" fill="#ED975D"/>
<path d="M669.249 538.494L700.554 546.124V549.57C700.554 549.57 669.401 549.227 667.391 545.952C665.38 542.678 669.249 538.494 669.249 538.494" fill="#FFB27D"/>
<path d="M700.554 652.149L699.095 657.846C699.095 657.846 692.622 654.695 684.417 650.621C671.621 644.267 654.599 635.666 651.263 633.252C649.063 631.659 646.153 623.015 643.466 613.237C639.454 598.658 635.919 581.563 635.919 581.563C635.919 581.563 641.854 560.025 657.75 573.206C667.257 581.094 665.779 596.295 664.736 608.117C664.041 616.048 663.545 622.46 666.701 624.12C671.227 626.505 682.203 635.215 689.958 643.741C692.743 646.799 695.106 649.832 696.616 652.541L700.554 652.149" fill="#FFB27D"/>
<path d="M700.553 546.124C700.553 546.124 706.302 543.455 708.587 543.195C710.866 542.938 714.703 542.852 714.703 543.195C714.703 543.541 710.592 545.949 709.497 546.124C708.398 546.298 706.302 547.763 706.939 547.934C707.576 548.106 710.961 547.373 711.003 547.934C711.05 548.494 708.95 548.838 708.587 549.27C708.218 549.699 706.939 550.216 704.886 549.959C702.828 549.699 700.553 549.57 700.553 549.57V546.124" fill="#FFB27D"/>
<path d="M700.554 627.312C680.34 654.767 628.182 657.846 628.182 657.846C619.717 628.693 623.183 554.982 625.124 527.584C625.003 522.799 625.198 518.753 626.032 517.197C627.329 514.77 634.376 510.563 636.91 508.473C636.91 508.473 637.499 508.249 638.004 508.212C638.384 509.467 643.081 524.51 643.549 524.196C644.008 523.888 651.94 509.595 652.774 507.906C653.626 507.93 654.21 507.948 654.377 507.958C655.776 508.021 663.318 509.446 663.949 510.594C664.171 510.994 666.339 516.408 669.054 523.574C669.054 523.574 669.054 523.58 669.059 523.593C674.16 537.037 681.642 534.514 684.612 538.496C686.479 540.996 685.673 545.662 682.212 549.696C681.915 550.039 681.605 550.375 681.271 550.705C678.64 553.336 675.063 554.891 669.244 554.084C667.799 553.883 664.875 552.563 662.484 550.616C668.211 570.9 700.554 627.312 700.554 627.312" fill="#1C468A"/>
<path d="M638.354 507.51L635.616 508.987C635.616 508.987 643.087 528.927 643.457 528.838C643.827 528.75 655.051 508.027 655.051 508.027L652.761 507.126L643.548 524.196L638.354 507.51Z" fill="#F99746"/>
<path d="M661.651 481.803C661.651 481.803 652.071 476.736 636.247 485.645L636.928 483.196C637.539 481.008 639.073 479.146 641.195 478.082C643.577 476.881 647.268 475.706 652.519 475.746C656.127 475.773 659.427 477.692 661.066 480.725L661.651 481.803Z" fill="#1C468A"/>
<path d="M613.912 488.302L613.674 487.549C622.163 485.177 623.981 476.866 624.29 474.929C624.332 474.68 624.524 474.479 624.778 474.414C625.037 474.349 625.283 474.557 625.237 474.806C624.845 477.055 622.759 485.827 613.912 488.302Z" fill="#EFCBAB"/>
<path d="M613.676 487.549H612.548L612.983 488.84L613.914 488.301L613.676 487.549" fill="#D8A987"/>
<path d="M612.548 487.548C612.548 487.548 610.992 487.957 610.664 487.548C610.664 487.548 610.627 488.791 611.185 489.118C611.185 489.118 612.434 489.157 612.983 488.839L612.548 487.548Z" fill="#EFCBAB"/>
<path d="M638.91 509.306C638.91 509.306 641.414 513.645 651.376 509.692L643.549 524.196L638.91 509.306" fill="white"/>
<path d="M635.613 508.985C635.613 508.985 634.313 550.261 623.519 558.262C622.761 558.828 621.952 559.227 621.093 559.434C615.639 560.745 611.679 557.682 608.999 553.437C605.268 547.539 604.006 539.365 604.641 537.479C605.844 533.894 608.618 540.236 614.44 538.496C620.263 536.753 621.83 514.631 625.899 511.404C626.958 510.565 635.613 508.985 635.613 508.985" fill="#1C468A"/>
<path d="M582.944 538.36C582.944 538.36 581.319 537.531 579.767 536.467C579.058 535.97 578.362 535.431 577.848 534.895C577.559 534.589 577.327 534.291 577.185 534.002C577.185 534.002 590.362 519.04 591.409 517.28C592.456 515.52 602.399 501.007 602.399 501.007C602.399 501.007 603.617 501.547 605.075 502.438C605.617 502.772 606.196 503.155 606.754 503.576C607.784 504.357 608.758 505.275 609.344 506.264C609.344 506.264 594.867 520.1 593.849 522.094C592.826 524.092 582.944 538.36 582.944 538.36" fill="#EFCBAB"/>
<path d="M579.767 536.467C579.057 535.971 578.359 535.432 577.848 534.895C577.56 534.589 577.324 534.292 577.182 534.002C577.182 534.002 590.361 519.04 591.408 517.28C592.455 515.52 602.396 501.008 602.396 501.008C602.396 501.008 603.613 501.547 605.074 502.439C605.617 502.772 606.198 503.155 606.754 503.577C602.692 507.489 591.716 518.154 590.779 519.983C589.874 521.762 582.729 532.176 579.767 536.467Z" fill="#DDB08E"/>
<path d="M593.325 514.359C593.325 514.359 589.434 517.915 588.99 520.341L593.056 523.416C593.056 523.416 596.61 520.132 597.739 517.701L593.325 514.359" fill="#C94C43"/>
<path d="M594.304 523.704C594.304 523.704 594.579 521.29 593.989 520.439C593.4 519.589 593.348 517.248 592.802 517.497C592.253 517.746 592.607 519.663 592.257 520.59C591.91 521.518 591.404 525.828 592.802 526.645C594.196 527.466 594.304 523.704 594.304 523.704" fill="#FFB27D"/>
<path d="M590.361 517.645C590.361 517.645 588.743 517.409 588.153 518.423C587.563 519.436 586.831 521.084 587.943 521.735C589.059 522.387 590.361 517.645 590.361 517.645" fill="#FFB27D"/>
<path d="M644.146 667.804C643.649 675.063 643.078 680.642 643.078 680.642L638.431 685.158C638.431 685.158 636.957 677.952 635.1 669.209C635.1 669.209 640.313 670.917 644.146 667.804Z" fill="white"/>
<path d="M647.753 687.17L645.243 688.449C644.331 688.755 643.579 688.841 642.659 689.176C641.254 689.683 640.269 690.678 640.221 690.858C639.513 693.572 638.51 693.397 638.51 693.397L628.433 693.489C627.957 693.263 628.761 691.346 629.15 690.986C630.101 690.101 632.948 690.547 633.99 687.763C634.578 686.199 637.473 681.334 637.473 681.334L637.49 681.318C637.59 681.27 638.125 681.171 641.038 681.742C642.542 682.034 643.168 679.154 643.168 679.154C643.168 679.154 643.644 679.242 644.167 679.596C644.582 679.875 645.027 680.323 645.282 681.023C645.645 682.01 647.123 683.431 648.186 684.362C648.829 684.923 649.318 685.306 649.318 685.306C649.318 685.306 649.763 685.813 647.753 687.17" fill="#233862"/>
<path d="M700.554 652.149L699.095 657.846C699.095 657.846 692.622 654.695 684.417 650.621C687.609 648.711 689.185 645.879 689.958 643.741C692.743 646.799 695.106 649.832 696.616 652.541L700.554 652.149" fill="white"/>
<path d="M708.923 654.359C708.923 654.359 708.913 654.359 708.885 654.351C708.696 654.308 707.827 654.037 707.247 652.728C706.869 651.87 706.756 651.162 706.406 650.312L704.976 647.984C703.479 646.126 702.955 646.56 702.955 646.56C702.955 646.56 702.563 647.035 701.987 647.657C701.033 648.687 699.569 650.122 698.535 650.492C697.799 650.752 697.336 651.181 697.057 651.583C696.694 652.085 696.614 652.541 696.614 652.541C696.614 652.541 699.683 653.045 699.414 654.472C698.894 657.234 699.017 657.738 699.074 657.827L699.088 657.846C699.088 657.846 704.324 660.431 706 660.941C708.984 661.839 710.538 663.751 711.506 664.623C711.893 664.977 712.436 665.141 712.969 665.06C713.758 664.942 714.773 664.703 715 664.25L708.923 654.359" fill="#233862"/>
<path d="M641.483 536.932C641.483 536.147 642.157 535.506 642.993 535.506C643.83 535.506 644.507 536.147 644.507 536.932C644.507 537.721 643.83 538.359 642.993 538.359C642.157 538.359 641.483 537.721 641.483 536.932Z" fill="#233862"/>
<path d="M641.483 547.523C641.483 546.735 642.157 546.097 642.993 546.097C643.83 546.097 644.507 546.735 644.507 547.523C644.507 548.312 643.83 548.95 642.993 548.95C642.157 548.95 641.483 548.312 641.483 547.523Z" fill="#233862"/>
<path d="M682.21 549.697C681.916 550.04 681.604 550.375 681.27 550.705C678.634 553.336 675.063 554.892 669.245 554.084C667.799 553.883 664.869 552.564 662.482 550.617C662.482 550.617 657.686 538.253 658.333 536.51C658.979 534.766 668.219 548.321 675.89 548.951C678.887 549.201 680.917 549.429 682.21 549.697" fill="#233862"/>
<path d="M625.807 540.084L623.519 558.262C622.763 558.828 621.949 559.227 621.094 559.434C615.638 560.745 611.676 557.683 608.996 553.437C611.793 553.805 618.572 554.373 620.05 551.589C621.924 548.06 625.807 540.084 625.807 540.084Z" fill="#233862"/>
<path d="M493.443 441.066C493.443 441.066 496.163 438.756 496.824 437.136C497.488 435.513 497.406 432.794 497.406 431.028C497.406 431.028 496.59 430.756 496.39 431.599C496.187 432.44 495.825 434.385 495.069 434.778C494.314 435.171 492.627 435.127 492.238 437.136C491.848 439.143 493.443 441.066 493.443 441.066" fill="#B56F40"/>
<path d="M487.225 441.46C487.225 441.46 484.755 436.689 485.255 435.136C485.754 433.583 493.346 431.881 494.344 432.613C495.347 433.345 494.344 442.259 494.344 442.259L487.225 441.46Z" fill="#B56F40"/>
<path d="M567.103 585.178C567.103 585.178 566.739 589.118 568.19 591.001C569.642 592.884 570.431 594.597 570.915 593.739C571.399 592.884 570.126 589.918 570.551 589.974C570.973 590.03 572.15 593.511 572.742 594.597C573.334 595.681 574.604 597.395 575.452 596.537C576.299 595.681 574.666 587.576 574 586.549C573.334 585.522 571.945 583.24 571.945 583.24L567.103 585.178" fill="#B56F40"/>
<path d="M514.91 466.462L543.801 451.133L563.216 473.821L536.762 485.926L514.91 466.462" fill="#233862"/>
<path d="M527.042 473.691C527.042 473.691 526.438 476.138 524.745 477.006C523.049 477.874 525.709 480.227 525.045 481.961C524.379 483.696 527.068 485.927 527.068 485.927L545.729 487.954C545.729 487.954 548.463 486.835 548.703 483.81C548.944 480.785 549.233 477.006 549.233 477.006L541.083 471.139L529.343 471.662L527.042 473.691" fill="#C94C43"/>
<path d="M464.346 444.339C464.346 444.339 463.484 442.429 462.88 440.351C462.611 439.392 462.387 438.401 462.331 437.542C462.304 437.054 462.324 436.613 462.419 436.244C462.419 436.244 486.473 431.558 488.833 430.653C491.193 429.75 511.886 423.21 511.886 423.21C511.886 423.21 512.594 424.567 513.251 426.421C513.492 427.109 513.729 427.873 513.914 428.657C514.26 430.106 514.441 431.641 514.207 432.974C514.207 432.974 489.835 435.704 487.311 436.847C484.787 437.99 464.346 444.339 464.346 444.339" fill="#EFCBAB"/>
<path d="M462.877 440.352C462.608 439.394 462.385 438.404 462.329 437.545C462.301 437.059 462.322 436.614 462.417 436.246C462.417 436.246 486.473 431.561 488.831 430.656C491.192 429.751 511.883 423.211 511.883 423.211C511.883 423.211 512.591 424.57 513.247 426.422C513.491 427.113 513.725 427.876 513.913 428.656C507.049 429.452 488.433 431.686 486.121 432.732C483.874 433.749 469.012 438.434 462.877 440.352" fill="#DDB08E"/>
<path d="M492.917 429.279C492.917 429.279 486.497 429.863 484.169 431.807L485.53 437.52C485.53 437.52 491.428 436.957 494.392 435.483L492.917 429.279Z" fill="#C94C43"/>
<path d="M498.75 693.488C498.75 693.488 498.75 689.843 499.302 688.631C499.854 687.419 501.872 682.487 501.872 682.487H509.762C509.762 682.487 511.231 686.987 511.321 688.459C511.415 689.929 511.321 693.488 511.321 693.488H498.75Z" fill="#233862"/>
<path d="M548.849 693.489C548.849 693.489 548.849 689.844 548.297 688.632C547.749 687.42 545.731 682.488 545.731 682.488H537.838C537.838 682.488 536.368 686.988 536.279 688.46C536.187 689.93 536.279 693.489 536.279 693.489H548.849Z" fill="#233862"/>
<path d="M529.11 488.372C529.11 488.372 527.528 496.351 525.853 499.786L516.315 504.203L529.665 529.091L547.991 513.484L541.902 502.286C541.902 502.286 541.325 491.195 543.196 487.395C545.067 483.595 529.11 488.372 529.11 488.372Z" fill="#B56F40"/>
<path d="M528.884 489.472C528.884 489.47 530.499 495.666 535.346 496.238C540.197 496.81 542.138 491.819 542.138 491.819L528.884 489.472" fill="#99592E"/>
<path d="M535.163 493.909C531.67 493.343 525.95 488.014 526.835 482.571L528.222 474.079C528.544 472.092 530.279 470.679 532.073 470.94L545.422 472.877C547.22 473.138 548.422 474.977 548.097 476.964L546.794 484.976C545.862 490.682 539.162 494.558 535.163 493.909" fill="#B56F40"/>
<path d="M499.74 567.3C499.712 566.308 501.112 606.776 499.056 629.752C497.022 652.444 499.07 684.016 499.07 684.016C499.07 684.016 505.671 687.452 512.831 684.016C512.831 684.016 520.678 640.185 520.628 629.752C520.574 618.643 529.17 569.033 529.17 569.033L499.74 567.3Z" fill="#F99746"/>
<path d="M548.564 684.016C548.564 684.016 541.965 687.451 534.809 684.016C534.809 684.016 526.963 640.185 527.011 629.752C527.034 625.061 525.515 613.499 523.747 601.712C521.334 585.585 518.467 569.032 518.467 569.032L549.039 567.233C549.039 567.233 546.518 607.065 548.582 629.752C550.647 652.441 548.564 684.016 548.564 684.016" fill="#F99746"/>
<path d="M530.959 478.255C530.248 478.152 529.588 478.307 529.145 478.681C528.753 479.015 528.561 479.502 528.59 480.091C528.648 481.221 529.406 482.048 530.847 482.549C531.943 482.931 533.042 482.969 533.053 482.969L533.068 482.971C534.174 483.131 535.056 482.637 535.844 481.417C536.025 481.144 536.577 480.202 536.25 479.538C536.069 479.169 535.637 478.934 534.966 478.837L530.959 478.255ZM532.298 483.146C530.996 482.957 528.434 482.305 528.325 480.102C528.292 479.436 528.517 478.88 528.971 478.494C529.472 478.07 530.212 477.892 530.999 478.007L535.009 478.588C535.771 478.699 536.268 478.983 536.49 479.432C536.863 480.188 536.323 481.164 536.072 481.548C535.22 482.863 534.254 483.395 533.035 483.221C532.981 483.218 532.701 483.204 532.298 483.146" fill="#2C3A64"/>
<path d="M540.368 479.62C539.7 479.523 539.213 479.626 538.922 479.926C538.398 480.466 538.627 481.522 538.708 481.832C539.073 483.221 539.759 483.941 540.862 484.102L540.877 484.105C540.888 484.108 541.946 484.383 543.115 484.33C544.653 484.26 545.638 483.686 546.051 482.625C546.265 482.071 546.239 481.552 545.966 481.122C545.668 480.64 545.085 480.305 544.377 480.202L540.368 479.62ZM541.54 484.487C541.138 484.428 540.866 484.362 540.814 484.349C539.597 484.17 538.844 483.389 538.45 481.893C538.335 481.455 538.129 480.372 538.726 479.756C539.08 479.391 539.648 479.261 540.408 479.372L544.417 479.953C545.207 480.068 545.856 480.447 546.199 480.995C546.508 481.491 546.545 482.085 546.302 482.711C545.498 484.781 542.842 484.676 541.54 484.487" fill="#2C3A64"/>
<path d="M535.988 480.519C535.929 480.51 535.875 480.47 535.86 480.412C535.835 480.331 535.886 480.248 535.966 480.226C536.039 480.206 537.718 479.771 539 480.669C539.069 480.719 539.084 480.813 539.029 480.879C538.978 480.946 538.88 480.96 538.807 480.91C537.652 480.1 536.071 480.51 536.057 480.515C536.031 480.521 536.01 480.522 535.988 480.519" fill="#2C3A64"/>
<path d="M532.46 504.186L523.426 500.496C523.426 500.496 518.756 535.522 524.991 537.689C524.991 537.689 542.777 507.896 541.568 504.072L532.46 504.186Z" fill="white"/>
<path d="M526.744 498.275C526.744 498.275 524.199 498.687 522.867 499.886C522.867 499.886 524.804 505.822 529.948 507.591L532.155 504.186C532.155 504.186 527.957 502.315 526.744 498.275Z" fill="#D2E3FC"/>
<path d="M532.154 504.187C532.154 504.187 540.565 503.882 541.82 500.058C541.82 500.058 543.5 501.713 543.442 504.396C543.442 504.396 540.778 508.188 534.121 508.233L532.154 504.187Z" fill="#D2E3FC"/>
<path d="M532.857 487.952C532.857 487.952 537.335 488.139 539.31 488.889C539.31 488.889 537.944 490.416 536.158 490.157C534.373 489.898 533.12 489.085 532.857 487.952Z" fill="#FFF0E6"/>
<path d="M501.158 475.514C497.097 477.927 491.553 481.198 487.028 483.783C486.803 483.061 486.64 482.407 486.548 481.835C485.044 472.807 487.226 441.459 487.226 441.459C487.226 441.459 488.733 440.742 490.292 440.62C493.238 440.395 494.346 442.257 494.346 442.257C494.346 442.257 499.477 469.835 501.158 475.514" fill="#B56F40"/>
<path d="M573.064 584.545L570.002 585.747C565.102 587.39 559.818 585.173 558.219 580.506C556.059 574.219 555.839 567.448 555.037 561.874C554.646 559.134 554.193 553.483 552.432 549.081C552.428 549.079 552.428 549.076 552.428 549.076L555.506 646.517C509.4 649.598 486.906 624.6 486.906 624.6C485.718 598.22 496.889 538.78 500.961 518.18C498.999 513.996 485.052 501.982 482.718 490.188C481.634 484.711 485.029 480.837 489.147 478.222C494.33 474.926 500.667 473.625 500.667 473.625L515.566 492.416C516.201 493.091 516.646 493.622 516.82 493.957C517.97 496.165 523.935 499.83 523.935 499.83C523.919 499.946 524.577 531.507 525.797 532.515C527.55 531.887 539.306 509.684 541.907 502.284C545.647 503.256 549.688 504.573 553.95 506.344C553.95 506.344 562.02 510.406 563.162 528.114C564.134 543.13 573.858 562.298 576.064 579.712C576.327 581.774 575.1 583.751 573.064 584.545Z" fill="#1C468A"/>
<path d="M522.267 498.741C522.267 498.741 523.357 529.345 524.748 537.004L545.438 503.281L542.585 502.284L526.232 530.233L524.619 499.828L522.267 498.741" fill="#C94C43"/>
<path d="M526.744 497.553C526.744 497.553 524.199 497.965 522.867 499.164C522.867 499.164 524.804 505.099 529.948 506.869L532.155 504.186C532.155 504.186 527.957 501.592 526.744 497.553Z" fill="white"/>
<path d="M532.154 504.187C532.154 504.187 540.565 503.159 541.82 499.335C541.82 499.335 543.5 500.991 543.442 503.673C543.442 503.673 540.778 507.465 534.121 507.51L532.154 504.187Z" fill="white"/>
<path d="M519.809 540.275C519.809 539.479 520.497 538.832 521.336 538.832C522.183 538.832 522.867 539.479 522.867 540.275C522.867 541.069 522.183 541.716 521.336 541.716C520.497 541.716 519.809 541.069 519.809 540.275Z" fill="#233862"/>
<path d="M516.937 553.255C516.937 552.461 517.621 551.815 518.463 551.815C519.309 551.815 519.993 552.461 519.993 553.255C519.993 554.052 519.309 554.698 518.463 554.698C517.621 554.698 516.937 554.052 516.937 553.255Z" fill="#233862"/>
<path d="M517 480.825L517.509 480.371C512.388 475.279 514.768 468.506 515.407 466.972C515.487 466.775 515.435 466.553 515.28 466.403C515.122 466.254 514.852 466.309 514.771 466.507C514.055 468.3 511.661 475.514 517 480.825" fill="#EFCBAB"/>
<path d="M517.507 480.372L518.33 480.82L517.437 481.588L516.997 480.826L517.507 480.372Z" fill="#D8A987"/>
<path d="M518.327 480.821C518.327 480.821 519.282 481.736 519.702 481.569C519.702 481.569 519.173 482.488 518.623 482.506C518.623 482.506 517.693 482.038 517.436 481.589L518.327 480.821" fill="#EFCBAB"/>
<path d="M527.509 475.534C527.509 475.534 531.093 475.762 532.153 474.05C532.153 474.05 535.067 474.734 536.347 473.707C536.347 473.707 540.842 474.563 540.961 472.851C540.961 472.851 544.392 479.328 548.154 477.973C551.912 476.618 542.137 470.054 542.137 470.054L529.344 471.662L527.509 475.534Z" fill="#C94C43"/>
<path d="M527.776 470.683L527.042 473.691C527.042 473.691 537.034 470.344 549.233 477.006L549.093 472.158C549.063 471.212 548.604 470.322 547.833 469.72C545.625 468.006 540.35 464.639 530.577 467.319C529.206 467.695 528.095 469.372 527.776 470.683" fill="#1C468A"/>
<path d="M484.099 433.572C484.062 433.389 483.405 432.091 484.307 430.889C485.21 429.683 491.128 427.841 491.682 428.813C492.232 429.787 491.883 433.167 489.981 433.914C488.078 434.664 484.244 434.325 484.099 433.572" fill="#B56F40"/>
<path d="M500.959 518.181C498.996 513.997 485.048 501.984 482.717 490.189C481.633 484.713 485.024 480.838 489.145 478.223C489.145 478.223 487.216 486.506 492.69 493.981C498.171 501.456 500.959 518.181 500.959 518.181Z" fill="#233862"/>
<path d="M570.001 585.747C565.104 587.391 559.819 585.173 558.217 580.506C556.06 574.219 555.838 567.448 555.041 561.874C554.646 559.133 554.194 553.483 552.431 549.082C552.596 549.323 557.903 557.235 562.666 570.038C567.51 583.046 565.997 584.942 570.001 585.747Z" fill="#233862"/>
<path d="M757.141 693.274H731.137C729.746 692.159 732.102 689.627 734.564 689.458C735.635 689.382 736.986 689.592 738.532 689.9C738.893 685.419 740.934 665.264 748.635 666.074C757.296 666.98 748.635 674.948 746.188 679.666C744.377 683.16 742.46 688.173 741.585 690.538C742.29 690.68 743.021 690.823 743.761 690.951C744.912 687.626 749.18 676.445 754.609 677.096C760.989 677.861 758.422 682.342 753.909 685.003C750.586 686.961 746.518 689.742 744.582 691.086C746.223 691.338 747.934 691.509 749.671 691.469C754.124 691.37 756.296 692.609 757.141 693.274" fill="#82B378"/>
<path d="M97.5688 693.274C97.5688 693.274 85.5768 662.209 77.1568 664.859C68.7369 667.506 97.5688 693.274 97.5688 693.274" fill="#82B378"/>
<path d="M92.9759 693.274C91.9555 693.274 72.8193 674.543 71.5435 679.446C70.2677 684.351 92.9759 693.274 92.9759 693.274Z" fill="#82B378"/>
<path d="M113.388 693.274C113.388 693.274 105.474 686.43 95.4538 688.213C85.4337 689.994 81.1544 691.947 74.8607 690.595C68.567 689.246 65.3518 693.274 65.3518 693.274H113.388" fill="#82B378"/>
<path d="M389.277 615.881C391.123 613.154 375.575 582.995 383.921 566.204C384.961 564.112 404.339 567.236 404.339 567.236C404.339 567.236 408.302 609.646 406.076 620.867C404.503 628.795 401.421 652.192 399.752 665.242C399.747 665.285 399.741 665.326 399.735 665.368C399.34 668.472 399.022 670.979 398.825 672.537C398.675 673.717 398.822 674.908 399.255 676.024C400.492 679.215 403.173 685.824 404.515 686.733C404.515 686.733 397.182 688.712 395.774 687.934C394.367 687.162 390.787 674.97 390.787 674.97C391.41 673.835 391.629 672.545 391.418 671.282C391.143 669.622 390.719 667.021 390.244 663.816C390.244 663.816 390.244 663.816 390.244 663.818V663.816C383.921 639.681 384.873 622.396 389.277 615.881" fill="#FFB27D"/>
<path d="M347.861 670C348.871 669.147 349.562 668.016 349.835 666.763C350.199 665.116 350.779 662.542 351.535 659.385C354.663 634.701 362.027 618.85 368.589 614.224C371.336 612.288 368.092 578.889 382.189 565.962C383.946 564.353 400.904 573.737 400.904 573.737C400.904 573.737 388.72 614.728 382.436 624.485C377.995 631.378 366.346 652.238 359.894 663.891L359.897 663.894C358.33 666.712 357.074 668.995 356.295 670.408C355.715 671.459 355.405 672.626 355.39 673.811C355.351 677.209 354.867 686.312 356.289 687.106C357.17 687.599 357.938 688.144 358.575 688.699C358.575 688.699 351.887 688.157 351.071 688.114C350.264 688.074 345.137 672.94 345.038 672.65C345.038 672.647 345.038 672.647 345.038 672.647C346.064 671.596 347.105 670.641 347.861 670" fill="#FFB27D"/>
<path d="M341.717 678.215L340.037 687.495L340.927 688.117L346.187 680.951L341.717 678.215" fill="#233862"/>
<path d="M341.899 678.923C347.642 681.763 348.49 691.233 349.405 693.271L359.897 693.301C361.481 692.797 360.858 690.681 358.575 688.699C358.575 688.699 351.887 688.157 351.071 688.114C350.264 688.074 345.137 672.94 345.038 672.65C342.627 675.117 340.292 678.129 341.899 678.923" fill="#1C468A"/>
<path d="M351.072 647.539C351.535 659.388 376.525 657.111 376.525 657.111L379.829 642.041L382.018 632.037L382.749 628.723L381.651 628.232L365.754 621.114L360.776 618.883L360.574 619.475L352.001 644.793L351.998 644.803L351.072 647.539Z" fill="#F99746"/>
<path d="M351.998 644.803C359.218 637.801 379.829 642.041 379.829 642.041L382.018 632.037L381.651 628.232L365.754 621.114L360.574 619.475L352.001 644.793L351.998 644.803" fill="#EF7E29"/>
<path d="M388.891 684.424L390.258 693.269H391.774L392.487 686.414L388.891 684.424" fill="#233862"/>
<path d="M388.889 684.427C392.075 685.813 395.563 691.67 397.181 693.271L410.42 693.36C412.081 692.081 406.288 687.945 404.513 686.733C404.513 686.733 397.181 688.712 395.775 687.935C394.366 687.162 390.787 674.97 390.787 674.97C389.221 677.829 386.538 683.402 388.889 684.427" fill="#1C468A"/>
<path d="M382.752 624.353L386.039 658.384C392.147 665.687 408.279 661.2 408.279 661.2C408.279 661.2 409.505 633.088 410.13 631.98L407.791 631.331L382.752 624.353" fill="#F99746"/>
<path d="M382.748 624.354L386.035 658.385C386.205 641.637 409.17 643.321 409.17 643.321L407.788 631.333L382.748 624.354" fill="#EF7E29"/>
<path d="M410.881 464.497L377.187 451.903L358.341 469.044L390.37 480.826L410.881 464.497" fill="#233862"/>
<path d="M395.101 470.3C395.101 470.3 395.172 474.087 398.12 475.267C404.222 477.708 398.416 480.537 404.398 484.528C405.774 485.448 406.769 491.158 397.239 492.008C387.711 492.858 386.525 493.622 386.525 493.622C386.525 493.622 379.451 497.9 371.615 493.502C367.077 490.954 372.795 483.852 370.71 482.044C367.904 479.614 367.532 471.641 371.615 468.348C375.698 465.057 382.229 463.147 382.229 463.147L395.101 470.3" fill="#132644"/>
<path d="M421.84 478.535L422.092 477.735C413.078 475.214 411.145 466.383 410.811 464.325C410.77 464.06 410.568 463.848 410.291 463.779C410.019 463.71 409.761 463.931 409.805 464.196C410.223 466.585 412.437 475.906 421.84 478.535Z" fill="#EFCBAB"/>
<path d="M422.088 477.738H423.287L422.827 479.112L421.836 478.537L422.088 477.738" fill="#D8A987"/>
<path d="M423.292 477.735C423.292 477.735 424.95 478.171 425.298 477.735C425.298 477.735 425.336 479.057 424.747 479.404C424.747 479.404 423.416 479.446 422.83 479.107L423.292 477.735Z" fill="#EFCBAB"/>
<path d="M397.165 494.354C396.496 494.274 394.472 492.75 393.556 490.417C392.453 487.612 391.504 484.56 391.504 484.56L388.578 485.01L380.753 486.217L380.113 486.316C380.736 487.872 381.208 489.342 381.543 490.693C382.16 493.142 382.351 495.212 382.277 496.752C382.197 498.323 381.324 498.742 380.855 499.056C380.636 499.187 389.11 525.384 393.195 524.081C396.744 522.949 397.509 494.266 397.165 494.354" fill="#FFB27D"/>
<path d="M382.274 496.752C386.974 494.96 391.506 484.56 391.506 484.56C390.571 484.453 389.579 484.63 388.578 485.011C385.985 485.992 383.346 488.336 381.546 490.694C382.16 493.142 382.354 495.213 382.274 496.752" fill="#ED975D"/>
<path d="M379.275 492.52C379.275 492.52 393.244 490.385 391.7 482.199C390.156 474.014 390.918 468.224 381.933 469.243C372.948 470.259 371.811 473.674 371.62 476.524C371.433 479.375 375.601 492.866 379.275 492.52Z" fill="#FFB27D"/>
<path d="M378.032 500.123C378.032 500.123 354.461 493.432 352.786 491.573C351.109 489.712 347.034 465.009 347.031 461.452L343.602 461.916C343.602 461.916 341.06 490.015 344.006 496.39C346.949 502.762 376.676 512.804 376.676 512.804L378.032 500.123" fill="#FFB27D"/>
<path d="M396.457 494.038C396.457 494.038 393.562 502.55 382.229 497.194L394.131 521.89L397.239 499.809L396.457 494.038Z" fill="#F99746"/>
<path d="M406.089 496.545C406.089 496.545 404.661 500.974 431.954 515.007L452.089 502.004L454.506 503.913C454.506 503.913 435.203 525.859 432.189 525.392C429.175 524.926 408.45 512.051 408.45 512.051L406.089 496.545Z" fill="#FFB27D"/>
<path d="M331.889 606.304C331.889 606.304 332.63 608.509 334.315 611.692C337.222 617.171 342.926 625.555 352.468 630.584C363.291 636.293 398.351 647.204 422.43 641.92C422.43 641.92 420.151 570.036 415.092 540.481C414.977 539.794 414.857 539.132 414.736 538.496C416.204 543.804 423.739 545.55 426.829 544.571C433.615 542.417 435.973 537.442 436.295 532.178C436.793 524.073 432.454 515.273 431.957 515.007C420.829 509.048 418.767 499.589 413.361 496.211C408.535 493.197 397.021 493.987 396.457 494.041L393.934 517.66L382.23 497.195C382.212 497.189 363.339 495.642 352.784 491.57C352.784 491.57 321.216 532.768 360.306 532.226C360.306 541.715 355.606 550.337 351.072 563.162C346.577 575.88 331.889 606.304 331.889 606.304" fill="#1C468A"/>
<path d="M382.311 486.555C382.311 486.555 382.155 487.891 381.265 488.221C380.372 488.553 377.998 489.173 377.753 489.036C377.509 488.899 376.59 487.883 376.59 487.883C376.59 487.883 380.321 486.445 382.311 486.555" fill="white"/>
<path d="M347.11 461.468C347.11 461.468 348.555 460.521 347.793 457.92C347.284 456.179 347.628 454.766 347.236 454.809C346.82 454.855 346.496 457.113 346.252 457.668C346.047 458.14 342.911 452.543 342.106 452.983C341.302 453.42 339.741 455.632 343.488 463.281L347.11 461.468Z" fill="#FFB27D"/>
<path d="M452.09 502.003C452.09 502.003 454.234 497.206 454.949 496.218C456.363 494.261 460.389 493.037 460.652 493.903C460.911 494.766 458.068 496.045 457.944 498.039C457.913 498.592 459.115 497.518 459.855 497.1C460.304 496.849 460.57 497.058 460.336 497.377C459.153 499.003 458.507 500.671 457.378 501.287C456.246 501.903 454.506 503.912 454.506 503.912L452.09 502.003" fill="#FFB27D"/>
<path d="M396.457 494.038L393.935 517.661L382.274 496.752L378.032 496.768L395.186 526.205L399.587 493.915L396.457 494.038" fill="#AA443E"/>
<path d="M373.508 469.544C373.508 469.544 369.411 474.092 382.311 476.318C386.457 477.034 388.538 480.813 387.406 484.005C385.732 488.738 389.968 493.834 396.198 492C401.16 490.538 393.079 468.68 388.677 468.348C384.273 468.018 373.508 469.544 373.508 469.544" fill="#132644"/>
<path d="M378.032 470.589C378.032 470.589 373.889 473.397 373.537 475.645C373.184 477.895 372.217 481.108 370.634 478.836C369.05 476.567 368.786 473.494 370.634 471.421C372.482 469.345 376.616 468.412 377.497 469.128C378.379 469.844 378.032 470.589 378.032 470.589" fill="#132644"/>
<path d="M370.71 469.286C370.71 469.286 378.629 462.855 395.444 472.322L395.669 468.412C395.021 466.087 394.233 466.103 391.984 464.974C389.448 463.697 385.53 462.447 379.948 462.49C376.11 462.52 373.872 462.056 372.129 465.277L370.71 469.286Z" fill="#1C468A"/>
<path d="M475.518 514.208C475.518 514.208 477.008 512.68 478.311 510.91C478.908 510.092 479.466 509.229 479.823 508.437C480.023 507.987 480.161 507.565 480.201 507.187C480.201 507.187 459.195 495.182 457.288 493.585C455.385 491.988 438.205 479.299 438.205 479.299C438.205 479.299 437.057 480.354 435.78 481.894C435.308 482.467 434.816 483.112 434.36 483.791C433.523 485.048 432.808 486.439 432.552 487.768C432.552 487.768 454.555 498.03 456.53 499.902C458.506 501.775 475.518 514.208 475.518 514.208" fill="#EFCBAB"/>
<path d="M478.311 510.91C478.908 510.091 479.466 509.229 479.823 508.437C480.023 507.987 480.161 507.565 480.201 507.187C480.201 507.187 459.195 495.181 457.288 493.585C455.385 491.988 438.205 479.299 438.205 479.299C438.205 479.299 437.057 480.354 435.78 481.893C435.308 482.467 434.816 483.112 434.36 483.791C440.548 486.703 457.301 494.683 459.109 496.397C460.865 498.066 473.208 507.166 478.311 510.91" fill="#DDB08E"/>
<path d="M453.931 490.998C453.931 490.998 459.774 493.575 461.277 496.142L457.97 501.097C457.97 501.097 452.611 498.704 450.339 496.381L453.931 490.998" fill="#C94C43"/>
<path d="M457.374 501.288C457.374 501.288 458.851 500.719 459.735 499.678C460.619 498.636 461.819 496.954 460.337 497.379C458.851 497.803 456.208 499.559 455.21 499.723C454.212 499.886 454.573 500.615 454.507 500.824C454.434 501.032 457.374 501.288 457.374 501.288Z" fill="#FFB27D"/>
<path d="M331.888 606.304C331.888 606.304 332.63 608.509 334.316 611.692C340.642 605.381 349.46 595.33 355.604 583.239C366.204 562.382 360.307 532.226 360.307 532.226C360.307 541.715 355.607 550.337 351.072 563.162C346.576 575.88 331.888 606.304 331.888 606.304" fill="#233862"/>
<path d="M397.238 534.728C397.238 534.179 396.766 533.733 396.184 533.733C395.604 533.733 395.129 534.179 395.129 534.728C395.129 535.275 395.604 535.723 396.184 535.723C396.766 535.723 397.238 535.275 397.238 534.728Z" fill="#233862"/>
<path d="M397.238 552.813C397.238 552.263 396.766 551.818 396.184 551.818C395.604 551.818 395.129 552.263 395.129 552.813C395.129 553.363 395.604 553.808 396.184 553.808C396.766 553.808 397.238 553.363 397.238 552.813Z" fill="#233862"/>
<path d="M415.094 540.48C414.976 539.794 414.859 539.131 414.738 538.495C416.205 543.803 423.741 545.549 426.831 544.57C433.616 542.417 435.974 537.441 436.297 532.177C435.565 532.536 424.554 537.844 419.434 534.727C414.214 531.549 410.986 524.356 410.886 524.134L415.094 540.48" fill="#233862"/>
<path d="M636.967 443.403C636.967 443.403 633.869 445.601 630.292 445.418C627.64 445.283 624.929 443.091 624.818 442.942L622.884 446.486C622.884 446.486 627.835 449.028 631.922 448.093C633.173 447.807 635.163 446.532 636.046 445.604C637.018 444.581 636.967 443.403 636.967 443.403" fill="#6BB7BF"/>
<path d="M636.526 436.219L641.708 433.921C641.708 433.921 641.494 444.32 632.57 447.885C632.57 447.885 637.957 440.538 636.526 436.219Z" fill="#86D1CD"/>
<path d="M86.9023 538.016C86.9023 538.016 83.8051 540.213 80.2313 540.03C77.5785 539.894 74.8637 537.702 74.7553 537.555L72.8204 541.098C72.8204 541.098 77.769 543.64 81.8568 542.704C83.1096 542.417 85.1011 541.143 85.9828 540.215C86.9546 539.194 86.9023 538.016 86.9023 538.016Z" fill="#6BB7BF"/>
<path d="M86.4617 530.832L91.6473 528.533C91.6473 528.533 91.4327 538.931 82.5069 542.495C82.5069 542.495 87.8947 535.15 86.4617 530.832Z" fill="#86D1CD"/>
<path d="M504.112 375.749C504.112 375.749 511.649 370.811 517.306 378.174L523.52 375.652C523.52 375.652 520.452 371.082 508.407 373.109C500.529 374.434 504.112 375.749 504.112 375.749Z" fill="#5685D8"/>
<path d="M496.692 380.577C496.692 380.577 498.744 372.591 514.2 372.591C514.2 372.591 508.407 373.108 503.885 380.198L496.692 380.577Z" fill="#739AF0"/>
<path d="M454.71 407.836C454.71 407.836 450.548 405.357 450.11 402.359C450.11 402.359 446.055 402.566 445.18 403.807C445.18 403.807 447.042 408.767 449.232 409.696C449.232 409.696 454.16 410.005 454.71 407.836Z" fill="#ED7D2B"/>
<path d="M730.66 616.756C730.66 616.756 726.498 614.275 726.059 611.279C726.059 611.279 722.008 611.486 721.131 612.725C721.131 612.725 722.995 617.684 725.182 618.614C725.182 618.614 730.116 618.926 730.66 616.756" fill="#ED7D2B"/>
<path d="M51.2118 609.817C51.2118 609.817 47.0494 607.337 46.6113 604.341C46.6113 604.341 42.5584 604.547 41.6821 605.789C41.6821 605.789 43.5445 610.748 45.735 611.676C45.735 611.676 50.6642 611.987 51.2118 609.817" fill="#ED7D2B"/>
</svg>
